#!OML:ASF E:\Mandelcareful walks\Project 1\Capture day 1\Session 1\Subject1.ASF
:FULLY-SPECIFIED
:DEGREES
294
root -8.11516 2.69619 1.51938 192.79 31.9783 -141.233
lowerback 35.9044 2.72023 1.63554
upperback 22.6232 10.7687 10.3653
thorax 5.29698 7.45201 7.36562
lowerneck -28.8795 1.33175 4.13383
upperneck 35.8735 -0.312192 4.05014
head 18.4167 1.4848 1.25031
rclavicle -6.36111e-015 3.37934e-014
rhumerus 49.682 15.2883 -15.709
rradius 76.6105
rwrist -4.64913
rhand 3.9213 -25.4277
rfingers 7.12502
rthumb 29.3406 -53.1324
lclavicle -6.36111e-015 3.37934e-014
lhumerus -42.5532 -1.46164 81.852
lradius 83.8665
lwrist 38.9959
lhand -57.6874 -28.7057
lfingers 7.12502
lthumb -29.9476 -1.109
rfemur -94.1612 -53.2689 6.17202
rtibia 105.216
rfoot 25.3142 24.1754
rtoes -11.7405
lfemur -103.149 -0.62685 -42.5064
ltibia 58.6168
lfoot 18.1055 12.1909
ltoes 20.1463
295
root -8.08865 2.70903 1.52922 191.778 32.3413 -141.762
lowerback 36.6312 2.95686 1.27871
upperback 22.8236 11.1259 10.1309
thorax 5.25694 7.65707 7.14763
lowerneck -28.8149 1.09782 3.79106
upperneck 36.0002 -0.704394 4.69104
head 18.4874 1.39992 1.52962
rclavicle 1.31198e-013 8.78628e-014
rhumerus 49.3537 14.8436 -16.5525
rradius 75.9123
rwrist -4.49734
rhand 3.76336 -25.3291
rfingers 7.12502
rthumb 29.1898 -53.0601
lclavicle 1.31198e-013 8.78628e-014
lhumerus -42.99 -1.0131 82.8298
lradius 84.1217
lwrist 41.6609
lhand -58.0771 -22.7166
lfingers 7.12502
lthumb -30.3194 4.8124
rfemur -94.4861 -53.1995 6.27021
rtibia 105.522
rfoot 25.2936 24.8581
rtoes -11.6977
lfemur -102.837 0.101499 -43.0296
ltibia 59.0049
lfoot 17.8511 12.0777
ltoes 20.8148
296
root -8.08601 2.70609 1.55095 191.243 32.2754 -141.638
lowerback 37.1138 2.97497 1.59209
upperback 23.0208 11.4359 10.1527
thorax 5.3425 7.90396 6.90695
lowerneck -28.8157 0.766776 3.29472
upperneck 36.2456 -1.17618 5.36741
head 18.6521 1.27335 1.84411
rclavicle 4.13472e-014 5.88403e-014
rhumerus 48.806 14.3067 -16.5204
rradius 75.8075
rwrist -4.7683
rhand 3.64131 -25.5535
rfingers 7.12502
rthumb 29.0732 -53.3047
lclavicle 4.13472e-014 5.88403e-014
lhumerus -42.8503 -0.718927 83.784
lradius 84.1268
lwrist 44.2895
lhand -57.1725 -26.2786
lfingers 7.12502
lthumb -29.4561 1.40579
rfemur -94.9053 -53.2032 7.10972
rtibia 105.716
rfoot 25.1244 25.1682
rtoes -12.4333
lfemur -102.355 0.319234 -42.741
ltibia 59.1642
lfoot 17.72 12.1371
ltoes 20.7393
297
root -8.0993 2.71067 1.58164 190.31 32.2575 -141.374
lowerback 38.1094 2.98523 1.89378
upperback 23.335 11.8702 10.2749
thorax 5.37292 8.24448 6.70436
lowerneck -28.4306 0.498238 3.54528
upperneck 36.0184 -1.59511 5.13795
head 18.43 1.10239 1.57428
rclavicle -3.10104e-014 8.0309e-014
rhumerus 48.2724 13.6264 -16.1179
rradius 75.7349
rwrist -5.09839
rhand 4.2747 -26.9566
rfingers 7.12502
rthumb 29.6779 -54.6018
lclavicle -3.10104e-014 8.0309e-014
lhumerus -42.1317 -0.582118 84.6305
lradius 83.8793
lwrist 46.2991
lhand -56.4041 -27.5743
lfingers 7.12502
lthumb -28.7223 0.23684
rfemur -94.3287 -52.8872 7.38593
rtibia 105.799
rfoot 25.1335 24.8574
rtoes -12.8906
lfemur -101.326 0.786304 -42.2263
ltibia 59.236
lfoot 17.5682 12.2862
ltoes 20.9748
298
root -8.09813 2.71466 1.61377 188.867 32.4194 -142.062
lowerback 39.1029 3.2642 1.42786
upperback 23.597 12.3464 10.2667
thorax 5.26312 8.51711 6.7089
lowerneck -28.0956 0.188918 3.55569
upperneck 35.921 -2.0464 5.18721
head 18.3027 0.935922 1.48262
rclavicle 1.98785e-014 6.75868e-014
rhumerus 47.5805 12.9997 -15.7045
rradius 75.7119
rwrist -5.49581
rhand 3.11071 -26.0255
rfingers 7.12502
rthumb 28.5663 -53.863
lclavicle 1.98785e-014 6.75868e-014
lhumerus -40.9754 -0.810694 85.2431
lradius 83.4058
lwrist 46.3065
lhand -56.8567 -21.3059
lfingers 7.12502
lthumb -29.1547 6.43116
rfemur -94.0126 -52.7158 6.88811
rtibia 105.879
rfoot 25.6366 24.3576
rtoes -12.7098
lfemur -100.162 1.19648 -42.4247
ltibia 59.1544
lfoot 17.4869 12.4781
ltoes 20.6182
